<svg xmlns="http://www.w3.org/2000/svg" xmlns:xlink="http://www.w3.org/1999/xlink" width="500" zoomAndPan="magnify" viewBox="0 0 375 374.999991" height="500" preserveAspectRatio="xMidYMid meet" version="1.0"><defs><g/><clipPath id="00acead4d9"><path d="M 235 76.277344 L 274 76.277344 L 274 110.179688 L 235 110.179688 Z M 235 76.277344 " clip-rule="nonzero"/></clipPath><clipPath id="fc3429352c"><path d="M 237.058594 82.1875 C 233.972656 87.273438 236.148438 92.222656 238.882812 94.851562 L 254.859375 110.179688 L 270.5 94.90625 C 273.042969 92.078125 274.015625 89.082031 273.476562 85.746094 C 272.726562 81.128906 268.921875 77.542969 264.222656 77.035156 C 261.339844 76.722656 258.554688 77.539062 256.382812 79.34375 C 255.796875 79.832031 255.273438 80.375 254.816406 80.964844 C 254.277344 80.292969 253.644531 79.675781 252.925781 79.132812 C 250.425781 77.234375 247.246094 76.476562 244.191406 77.066406 C 241.296875 77.625 238.695312 79.492188 237.058594 82.1875 " clip-rule="nonzero"/></clipPath></defs><path fill="#7293a0" d="M 103.589844 138.707031 C 102.710938 141.796875 96.957031 150.199219 94.746094 152.851562 C 92.535156 155.503906 84.132812 159.484375 83.691406 162.136719 C 83.246094 164.792969 87.226562 175.84375 92.976562 177.609375 C 98.726562 179.375 104.035156 179.382812 105.804688 181.589844 C 107.574219 183.796875 118.628906 197.945312 115.972656 205.023438 C 114.527344 208.882812 111.765625 219.226562 109.839844 229.792969 C 116.046875 231.183594 122.269531 232.144531 128.363281 232.585938 C 136.914062 216.878906 156.996094 175.308594 165.113281 160.507812 C 165.859375 159.148438 166.6875 157.691406 167.582031 156.164062 C 161.597656 144.339844 154.480469 131.417969 151.796875 128.53125 C 148.949219 125.746094 136.234375 107.644531 131.09375 107.894531 C 131.066406 107.894531 131.03125 107.898438 131.003906 107.90625 C 129.050781 108.441406 131.898438 126.765625 131.898438 126.765625 C 131.898438 126.765625 118.0625 107.648438 114.988281 107.648438 C 114.855469 107.648438 114.742188 107.683594 114.65625 107.753906 C 112.441406 109.527344 113.640625 124.566406 117.75 131.628906 C 115.089844 133.402344 104.472656 135.613281 103.589844 138.707031 Z M 103.589844 138.707031 " fill-opacity="1" fill-rule="nonzero"/><path fill="#7293a0" d="M 140.195312 232.640625 C 146.183594 232.207031 151.914062 231.152344 157.207031 229.320312 C 157.210938 229.320312 157.210938 229.320312 157.210938 229.320312 C 167.792969 225.65625 177.328125 220.015625 185.546875 212.542969 C 192.398438 206.3125 198.773438 202.152344 204.496094 200.171875 C 216.328125 196.078125 222.746094 201.8125 224.957031 204.46875 C 229.730469 210.203125 230.191406 219.261719 226.085938 226.5 C 223.394531 231.242188 220.402344 235.453125 216.976562 239.257812 C 222.785156 236.828125 229.988281 232.597656 235.953125 225.351562 C 236.101562 225.171875 236.230469 225 236.375 224.824219 C 233.828125 214.183594 235.597656 205.417969 238.34375 197.292969 C 240.382812 191.25 249.335938 189.347656 266.035156 189.347656 C 278.109375 189.347656 286.742188 185.433594 291.695312 177.71875 C 296.5625 170.128906 296.949219 160.628906 296.277344 155.226562 C 296.078125 153.632812 294.753906 152.429688 293.15625 152.359375 C 292.457031 152.328125 291.761719 152.308594 291.164062 152.289062 C 288.09375 152.203125 284.613281 152.105469 281.269531 151.207031 C 271.359375 148.539062 262.078125 140.441406 255.800781 128.996094 C 253.835938 125.417969 246.417969 123.808594 240.453125 122.519531 C 238.050781 122 235.777344 121.507812 233.691406 120.878906 C 226.519531 118.730469 222.101562 110.691406 217.421875 102.179688 C 216.3125 100.15625 215.183594 98.109375 214.035156 96.164062 C 213.464844 95.203125 212.082031 95.15625 211.449219 96.078125 C 200.480469 111.988281 205.0625 124.945312 203.484375 125.914062 C 198.917969 128.003906 181.410156 150.152344 174.078125 164.925781 C 166.816406 179.566406 148.75 217.3125 140.195312 232.640625 Z M 140.195312 232.640625 " fill-opacity="1" fill-rule="nonzero"/><path fill="#ffc857" d="M 63.332031 212.433594 C 70.839844 216.691406 79.222656 220.59375 88.007812 223.824219 C 80.464844 213.894531 74.339844 202.628906 70.042969 190.222656 C 48.183594 127.042969 81.808594 57.867188 145.007812 36.007812 C 208.207031 14.148438 277.40625 47.769531 299.269531 110.949219 C 310.597656 143.675781 307.023438 178.015625 292.171875 206.550781 C 296.785156 206.242188 301.324219 208.164062 304.414062 211.929688 C 304.785156 212.386719 305.121094 212.863281 305.4375 213.347656 C 322.078125 181.316406 326.066406 142.796875 313.359375 106.078125 C 288.808594 35.136719 211.097656 -2.617188 140.136719 21.925781 C 69.171875 46.464844 31.40625 124.152344 55.957031 195.097656 C 58.042969 201.125 60.519531 206.90625 63.332031 212.433594 Z M 63.332031 212.433594 " fill-opacity="1" fill-rule="nonzero"/><path fill="#ffc857" d="M 285.523438 221.5 C 288.863281 209.957031 278.039062 203.515625 269.015625 219.582031 C 272.746094 209.820312 264.460938 202.125 256.5625 210.324219 C 251.214844 215.875 250.414062 221.53125 242.699219 230.902344 C 225.03125 252.367188 195.964844 254.632812 186.601562 250.085938 C 203 242.46875 211.765625 234.03125 218.484375 222.191406 C 223.902344 212.652344 216.457031 196.253906 191.425781 219.007812 C 152.261719 254.613281 94.871094 245.046875 69.683594 225.828125 C 103.21875 276.65625 168.054688 300.390625 228.261719 279.570312 C 258.183594 269.222656 282.199219 249.507812 298.175781 224.851562 C 302.359375 217.707031 291.550781 209.164062 285.523438 221.5 Z M 285.523438 221.5 " fill-opacity="1" fill-rule="nonzero"/><path fill="#7293a0" d="M 216.898438 71.289062 C 215.671875 69.042969 213.691406 66.769531 211.066406 66.304688 C 200.59375 64.449219 196.808594 60.105469 218.90625 47.746094 C 206.039062 43.746094 191.335938 55.1875 186.914062 63.527344 C 176.238281 56.539062 164.863281 58.1875 156.195312 41.816406 C 146.957031 60.535156 163.78125 77.964844 163.78125 77.964844 C 163.78125 77.964844 135.074219 92.761719 127.253906 98.652344 C 126.363281 99.324219 127.03125 100.730469 128.117188 100.464844 C 140.082031 97.558594 158.164062 83.054688 176.011719 88.710938 C 179.558594 90.113281 184.03125 90.824219 188.84375 90.554688 C 198.15625 90.035156 205.785156 86.019531 207.785156 81.035156 C 208.71875 81.15625 209.6875 81.113281 210.65625 80.875 C 212.8125 80.335938 214.882812 79.199219 216.023438 77.515625 C 216.640625 76.609375 217.605469 76 218.675781 75.757812 C 219.753906 75.515625 220.808594 75.285156 221.898438 75.320312 C 222.03125 72.828125 218.195312 73.664062 216.898438 71.289062 Z M 216.898438 71.289062 " fill-opacity="1" fill-rule="nonzero"/><g clip-path="url(#00acead4d9)"><g clip-path="url(#fc3429352c)"><path fill="#8a3431" d="M 235.550781 76.871094 L 273.621094 76.871094 L 273.621094 110.179688 L 235.550781 110.179688 Z M 235.550781 76.871094 " fill-opacity="1" fill-rule="nonzero"/></g></g><g fill="#7293a0" fill-opacity="1"><g transform="translate(55.282409, 359.916999)"><g><path d="M 2.859375 -37.390625 L 17.703125 -37.390625 L 31.03125 -10.578125 L 28.734375 -10.578125 L 40.078125 -37.390625 L 55.484375 -37.390625 L 55.671875 -33.765625 L 51.53125 -32.625 C 51.488281 -31.769531 51.488281 -30.738281 51.53125 -29.53125 C 51.570312 -28.320312 51.617188 -26.820312 51.671875 -25.03125 L 52.109375 -14.203125 C 52.191406 -12.628906 52.273438 -11.140625 52.359375 -9.734375 C 52.453125 -8.335938 52.550781 -7.191406 52.65625 -6.296875 C 52.757812 -5.410156 52.832031 -4.925781 52.875 -4.84375 L 57.015625 -3.625 L 56.828125 0 L 37.140625 0 L 36.953125 -3.625 L 41.09375 -4.84375 C 41.175781 -4.96875 41.226562 -5.507812 41.25 -6.46875 C 41.269531 -7.425781 41.289062 -8.632812 41.3125 -10.09375 C 41.332031 -11.5625 41.320312 -13.101562 41.28125 -14.71875 L 41.03125 -35.546875 L 44.78125 -35.546875 L 29.75 0.1875 L 24.59375 0.1875 L 6.75 -35.546875 L 12.296875 -35.546875 L 12.359375 -13.375 C 12.359375 -10.320312 12.378906 -8.164062 12.421875 -6.90625 C 12.460938 -5.65625 12.503906 -4.96875 12.546875 -4.84375 L 17.078125 -3.625 L 16.875 0 L 2.03125 0 L 1.84375 -3.625 L 6.375 -4.84375 C 6.414062 -5.050781 6.445312 -5.632812 6.46875 -6.59375 C 6.488281 -7.550781 6.519531 -8.675781 6.5625 -9.96875 C 6.601562 -11.257812 6.625 -12.457031 6.625 -13.5625 L 6.75 -24.84375 C 6.789062 -26.84375 6.8125 -28.507812 6.8125 -29.84375 C 6.8125 -31.1875 6.8125 -32.085938 6.8125 -32.546875 L 2.671875 -33.765625 Z M 2.859375 -37.390625 "/></g></g></g><g fill="#7293a0" fill-opacity="1"><g transform="translate(114.018239, 359.916999)"><g><path d="M 35.359375 -32.546875 L 21.46875 -10.1875 L 25.03125 -17.90625 L 25.03125 -11.34375 C 25.03125 -11.082031 25.03125 -10.632812 25.03125 -10 C 25.03125 -9.363281 25.050781 -8.671875 25.09375 -7.921875 C 25.132812 -7.179688 25.175781 -6.515625 25.21875 -5.921875 C 25.269531 -5.328125 25.335938 -4.96875 25.421875 -4.84375 L 29.875 -3.6875 L 29.6875 0 L 9.9375 0 L 9.75 -3.6875 L 14.203125 -4.84375 C 14.285156 -4.96875 14.335938 -5.328125 14.359375 -5.921875 C 14.378906 -6.515625 14.410156 -7.179688 14.453125 -7.921875 C 14.503906 -8.671875 14.53125 -9.363281 14.53125 -10 C 14.53125 -10.632812 14.53125 -11.082031 14.53125 -11.34375 L 14.53125 -17.90625 L 17.078125 -10.1875 L 4.265625 -32.546875 L 1.015625 -33.765625 L 1.203125 -37.390625 L 20.390625 -37.390625 L 20.578125 -33.765625 L 16.4375 -32.546875 L 23.765625 -19.4375 L 21.921875 -19.4375 L 29.296875 -32.546875 L 24.84375 -33.765625 L 25.03125 -37.390625 L 38.421875 -37.390625 L 38.609375 -33.765625 Z M 35.359375 -32.546875 "/></g></g></g><g fill="#7293a0" fill-opacity="1"><g transform="translate(153.642628, 359.916999)"><g/></g></g><g fill="#7293a0" fill-opacity="1"><g transform="translate(166.383589, 359.916999)"><g><path d="M 2.359375 0 L 2.171875 -3.625 L 6.046875 -4.84375 C 6.179688 -5.007812 6.28125 -5.601562 6.34375 -6.625 C 6.40625 -7.644531 6.457031 -8.875 6.5 -10.3125 C 6.539062 -11.757812 6.5625 -13.1875 6.5625 -14.59375 L 6.625 -23.0625 C 6.625 -24.414062 6.601562 -25.816406 6.5625 -27.265625 C 6.519531 -28.710938 6.46875 -29.976562 6.40625 -31.0625 C 6.34375 -32.144531 6.242188 -32.769531 6.109375 -32.9375 L 1.96875 -33.765625 L 2.171875 -37.390625 L 20 -37.390625 C 25.863281 -37.390625 30.164062 -36.429688 32.90625 -34.515625 C 35.644531 -32.609375 37.015625 -29.875 37.015625 -26.3125 C 37.015625 -23.976562 36.394531 -21.832031 35.15625 -19.875 C 33.925781 -17.925781 32.066406 -16.363281 29.578125 -15.1875 C 27.097656 -14.019531 23.96875 -13.4375 20.1875 -13.4375 C 19.632812 -13.4375 19.019531 -13.476562 18.34375 -13.5625 C 17.664062 -13.65625 17.03125 -13.765625 16.4375 -13.890625 L 16.4375 -18.859375 C 16.644531 -18.734375 17.085938 -18.59375 17.765625 -18.4375 C 18.453125 -18.289062 19.304688 -18.21875 20.328125 -18.21875 C 22.066406 -18.21875 23.390625 -18.851562 24.296875 -20.125 C 25.210938 -21.40625 25.671875 -23.171875 25.671875 -25.421875 C 25.671875 -28.179688 25.03125 -30.195312 23.75 -31.46875 C 22.476562 -32.738281 20.59375 -33.375 18.09375 -33.375 L 17.328125 -33.375 C 17.328125 -33 17.316406 -32.4375 17.296875 -31.6875 C 17.273438 -30.945312 17.265625 -29.882812 17.265625 -28.5 C 17.265625 -27.125 17.265625 -25.3125 17.265625 -23.0625 L 17.328125 -14.59375 C 17.328125 -13.1875 17.359375 -11.757812 17.421875 -10.3125 C 17.484375 -8.875 17.546875 -7.644531 17.609375 -6.625 C 17.671875 -5.601562 17.726562 -4.988281 17.78125 -4.78125 L 22.9375 -3.765625 L 22.75 0 Z M 2.359375 0 "/></g></g></g><g fill="#7293a0" fill-opacity="1"><g transform="translate(205.307225, 359.916999)"><g><path d="M 34.65625 0.453125 C 33.34375 0.359375 31.65625 0.257812 29.59375 0.15625 C 27.53125 0.0507812 25.691406 0 24.078125 0 L 2.109375 0 L 1.90625 -3.625 L 6.046875 -4.84375 C 6.128906 -5.007812 6.210938 -5.582031 6.296875 -6.5625 C 6.390625 -7.539062 6.457031 -8.769531 6.5 -10.25 C 6.539062 -11.738281 6.5625 -13.289062 6.5625 -14.90625 L 6.5625 -22.546875 C 6.5625 -24.203125 6.539062 -25.773438 6.5 -27.265625 C 6.457031 -28.753906 6.390625 -29.972656 6.296875 -30.921875 C 6.210938 -31.878906 6.128906 -32.421875 6.046875 -32.546875 L 1.90625 -33.765625 L 2.109375 -37.390625 L 21.09375 -37.390625 C 22.144531 -37.390625 23.425781 -37.398438 24.9375 -37.421875 C 26.445312 -37.441406 27.921875 -37.484375 29.359375 -37.546875 C 30.804688 -37.617188 31.976562 -37.695312 32.875 -37.78125 L 34.84375 -27.640625 L 30.640625 -27.078125 L 28.09375 -32.9375 C 27.414062 -33.0625 26.84375 -33.144531 26.375 -33.1875 C 25.90625 -33.226562 25.414062 -33.25 24.90625 -33.25 L 21.59375 -33.25 C 20.789062 -33.25 19.972656 -33.238281 19.140625 -33.21875 C 18.316406 -33.195312 17.710938 -33.144531 17.328125 -33.0625 C 17.285156 -32.632812 17.253906 -32.101562 17.234375 -31.46875 C 17.210938 -30.832031 17.191406 -29.984375 17.171875 -28.921875 C 17.148438 -27.859375 17.140625 -26.5 17.140625 -24.84375 L 17.140625 -13.828125 C 17.140625 -12.128906 17.148438 -10.691406 17.171875 -9.515625 C 17.191406 -8.347656 17.210938 -7.394531 17.234375 -6.65625 C 17.253906 -5.914062 17.285156 -5.3125 17.328125 -4.84375 C 18.179688 -4.71875 19.082031 -4.628906 20.03125 -4.578125 C 20.988281 -4.535156 22.253906 -4.515625 23.828125 -4.515625 L 25.484375 -4.515625 C 26.671875 -4.515625 27.507812 -4.515625 28 -4.515625 C 28.488281 -4.515625 28.847656 -4.535156 29.078125 -4.578125 C 29.316406 -4.628906 29.625 -4.695312 30 -4.78125 L 33.640625 -11.34375 L 37.71875 -10.578125 Z M 25.921875 -12.484375 L 25.359375 -16.75 C 25.054688 -16.75 24.53125 -16.757812 23.78125 -16.78125 C 23.039062 -16.800781 22.226562 -16.8125 21.34375 -16.8125 L 18.859375 -16.8125 C 18.003906 -16.8125 17.257812 -16.789062 16.625 -16.75 C 15.988281 -16.707031 15.609375 -16.664062 15.484375 -16.625 L 15.484375 -21.78125 C 15.609375 -21.738281 15.988281 -21.6875 16.625 -21.625 C 17.257812 -21.5625 18.003906 -21.53125 18.859375 -21.53125 L 21.34375 -21.53125 C 22.226562 -21.53125 23.039062 -21.539062 23.78125 -21.5625 C 24.53125 -21.582031 25.054688 -21.59375 25.359375 -21.59375 L 25.921875 -25.734375 L 30 -25.734375 L 30 -12.484375 Z M 25.921875 -12.484375 "/></g></g></g><g fill="#7293a0" fill-opacity="1"><g transform="translate(243.593812, 359.916999)"><g><path d="M 38.796875 -37.78125 L 40.328125 -25.796875 L 35.671875 -25.484375 L 33.1875 -33 C 32.8125 -33.082031 32.359375 -33.132812 31.828125 -33.15625 C 31.296875 -33.175781 30.664062 -33.1875 29.9375 -33.1875 L 27.96875 -33.1875 C 27.625 -33.1875 27.28125 -33.175781 26.9375 -33.15625 C 26.601562 -33.132812 26.394531 -33.101562 26.3125 -33.0625 C 26.3125 -32.8125 26.289062 -32.003906 26.25 -30.640625 C 26.207031 -29.285156 26.175781 -27.640625 26.15625 -25.703125 C 26.132812 -23.773438 26.125 -21.769531 26.125 -19.6875 L 26.125 -15.421875 C 26.125 -13.253906 26.15625 -11.234375 26.21875 -9.359375 C 26.28125 -7.492188 26.332031 -5.988281 26.375 -4.84375 L 32.046875 -3.765625 L 31.859375 0 L 9.6875 0 L 9.484375 -3.765625 L 15.15625 -4.84375 C 15.25 -5.988281 15.316406 -7.492188 15.359375 -9.359375 C 15.398438 -11.234375 15.421875 -13.253906 15.421875 -15.421875 L 15.421875 -19.6875 C 15.421875 -21.769531 15.410156 -23.773438 15.390625 -25.703125 C 15.367188 -27.640625 15.347656 -29.285156 15.328125 -30.640625 C 15.304688 -32.003906 15.269531 -32.8125 15.21875 -33.0625 C 15.132812 -33.101562 14.921875 -33.132812 14.578125 -33.15625 C 14.242188 -33.175781 13.90625 -33.1875 13.5625 -33.1875 L 11.53125 -33.1875 C 10.851562 -33.1875 10.191406 -33.175781 9.546875 -33.15625 C 8.910156 -33.132812 8.40625 -33.082031 8.03125 -33 L 5.796875 -25.359375 L 1.140625 -25.734375 L 2.421875 -37.78125 C 2.847656 -37.78125 3.523438 -37.757812 4.453125 -37.71875 C 5.390625 -37.675781 6.410156 -37.628906 7.515625 -37.578125 C 8.617188 -37.535156 9.679688 -37.492188 10.703125 -37.453125 C 11.722656 -37.410156 12.550781 -37.390625 13.1875 -37.390625 L 28.09375 -37.390625 C 28.726562 -37.390625 29.554688 -37.410156 30.578125 -37.453125 C 31.597656 -37.492188 32.660156 -37.535156 33.765625 -37.578125 C 34.867188 -37.628906 35.875 -37.675781 36.78125 -37.71875 C 37.695312 -37.757812 38.367188 -37.78125 38.796875 -37.78125 Z M 38.796875 -37.78125 "/></g></g></g><g fill="#7293a0" fill-opacity="1"><g transform="translate(285.19305, 359.916999)"><g><path d="M 15.609375 0.578125 C 13.828125 0.578125 11.804688 0.300781 9.546875 -0.25 C 7.296875 -0.800781 5.300781 -1.546875 3.5625 -2.484375 L 3.3125 -12.609375 L 8.28125 -12.875 L 10.640625 -5.734375 C 11.316406 -5.304688 12.195312 -4.941406 13.28125 -4.640625 C 14.363281 -4.347656 15.394531 -4.203125 16.375 -4.203125 C 18.113281 -4.203125 19.414062 -4.53125 20.28125 -5.1875 C 21.15625 -5.84375 21.59375 -6.769531 21.59375 -7.96875 C 21.59375 -9.363281 21.15625 -10.484375 20.28125 -11.328125 C 19.414062 -12.179688 18.289062 -12.882812 16.90625 -13.4375 C 15.53125 -13.988281 14.054688 -14.539062 12.484375 -15.09375 C 10.910156 -15.644531 9.429688 -16.34375 8.046875 -17.1875 C 6.671875 -18.039062 5.546875 -19.15625 4.671875 -20.53125 C 3.804688 -21.914062 3.375 -23.734375 3.375 -25.984375 C 3.375 -28.410156 4.070312 -30.535156 5.46875 -32.359375 C 6.875 -34.191406 8.847656 -35.613281 11.390625 -36.625 C 13.941406 -37.644531 16.941406 -38.15625 20.390625 -38.15625 C 21.273438 -38.15625 22.3125 -38.070312 23.5 -37.90625 C 24.695312 -37.738281 25.867188 -37.515625 27.015625 -37.234375 C 28.160156 -36.960938 29.132812 -36.632812 29.9375 -36.25 L 30.890625 -26.125 L 26.0625 -25.859375 L 23.828125 -32.6875 C 22.640625 -33.195312 21.28125 -33.453125 19.75 -33.453125 C 18.34375 -33.453125 17.109375 -33.078125 16.046875 -32.328125 C 14.992188 -31.585938 14.46875 -30.453125 14.46875 -28.921875 C 14.46875 -27.609375 14.910156 -26.546875 15.796875 -25.734375 C 16.691406 -24.929688 17.835938 -24.234375 19.234375 -23.640625 C 20.640625 -23.046875 22.140625 -22.445312 23.734375 -21.84375 C 25.328125 -21.25 26.820312 -20.523438 28.21875 -19.671875 C 29.625 -18.828125 30.769531 -17.734375 31.65625 -16.390625 C 32.550781 -15.054688 33 -13.351562 33 -11.28125 C 33 -8.976562 32.273438 -6.9375 30.828125 -5.15625 C 29.390625 -3.375 27.375 -1.972656 24.78125 -0.953125 C 22.1875 0.0664062 19.128906 0.578125 15.609375 0.578125 Z M 15.609375 0.578125 "/></g></g></g></svg>