<svg width="500" height="500" version="1.0" viewBox="0 0 375 375"><defs><clipPath id="a"><path d="M209 133.5h18.754v15.738H209Zm0 0"/></clipPath><clipPath id="b"><path d="M210.504 136.242c-1.43 2.363-.422 4.66.848 5.88l7.418 7.116 7.257-7.09c1.18-1.312 1.633-2.707 1.383-4.253-.347-2.145-2.113-3.81-4.297-4.043-1.336-.145-2.629.234-3.636 1.07-.274.226-.516.48-.727.754a5.123 5.123 0 0 0-4.934-1.813c-1.343.262-2.55 1.13-3.312 2.38"/></clipPath></defs><path fill="#fff" d="M-37.5-37.5h450v450h-450z"/><path fill="#fff" d="M-37.5-37.5h450v450h-450z"/><path fill="#fdfffb" d="M-37.5-37.5h450v450h-450z"/><path fill="#7293a0" d="M148.469 162.293c-.406 1.43-3.07 5.316-4.094 6.547-1.023 1.226-4.914 3.07-5.121 4.297-.203 1.23 1.64 6.343 4.3 7.164 2.665.816 5.122.82 5.942 1.84.82 1.023 5.938 7.57 4.711 10.847-.672 1.785-1.95 6.575-2.84 11.465 2.871.645 5.754 1.09 8.574 1.293 3.961-7.27 13.262-26.512 17.02-33.363a93.46 93.46 0 0 1 1.144-2.012c-2.77-5.473-6.066-11.453-7.308-12.789-1.32-1.289-7.207-9.668-9.59-9.55-.012 0-.027 0-.039.003-.906.246.41 8.727.41 8.727s-6.406-8.848-7.828-8.848a.258.258 0 0 0-.156.05c-1.024.821-.469 7.782 1.433 11.052-1.23.82-6.148 1.843-6.558 3.277ZM165.422 205.77c2.773-.2 5.43-.688 7.879-1.536h.004a37.766 37.766 0 0 0 13.12-7.765c3.173-2.887 6.126-4.813 8.774-5.727 5.48-1.894 8.453.758 9.477 1.988 2.21 2.657 2.426 6.848.523 10.2-1.246 2.195-2.633 4.144-4.219 5.902 2.688-1.121 6.028-3.082 8.79-6.437.066-.083.125-.16.195-.243-1.18-4.925-.363-8.98.91-12.742.945-2.797 5.09-3.68 12.824-3.68 5.59 0 9.59-1.812 11.883-5.382 2.254-3.512 2.434-7.91 2.121-10.41a1.519 1.519 0 0 0-1.445-1.329c-.32-.011-.645-.023-.922-.03-1.422-.04-3.031-.087-4.582-.5-4.59-1.235-8.887-4.985-11.793-10.282-.91-1.656-4.348-2.402-7.11-3-1.113-.238-2.163-.469-3.132-.758-3.32-.992-5.364-4.715-7.531-8.656-.516-.934-1.04-1.883-1.57-2.781a.71.71 0 0 0-1.196-.043c-5.082 7.367-2.961 13.363-3.692 13.812-2.113.965-10.222 11.219-13.617 18.055-3.363 6.777-11.73 24.25-15.691 31.344Zm0 0"/><path fill="#ffc857" d="M129.828 196.418a78.143 78.143 0 0 0 11.426 5.273 55.92 55.92 0 0 1-8.316-15.554c-10.125-29.242 5.445-61.266 34.714-71.383 29.266-10.117 61.313 5.445 71.438 34.687 5.246 15.153 3.59 31.047-3.29 44.254 2.141-.144 4.24.746 5.673 2.489.172.21.328.433.472.656 7.707-14.824 9.555-32.656 3.672-49.653-11.37-32.835-47.36-50.308-80.222-38.949-32.864 11.356-50.352 47.317-38.985 80.157a63.55 63.55 0 0 0 3.418 8.023Zm0 0"/><path fill="#ffc857" d="M232.727 200.613c1.546-5.343-3.47-8.324-7.649-.886 1.73-4.52-2.11-8.082-5.766-4.286-2.476 2.567-2.847 5.188-6.421 9.524-8.18 9.937-21.641 10.984-25.977 8.883 7.594-3.528 11.652-7.434 14.766-12.914 2.507-4.414-.942-12.004-12.532-1.473-18.136 16.48-44.714 12.05-56.378 3.156 15.527 23.528 45.554 34.512 73.437 24.875a62.947 62.947 0 0 0 32.375-25.328c1.938-3.305-3.066-7.262-5.855-1.55Zm0 0"/><path fill="#7293a0" d="M200.945 131.086c-.57-1.04-1.488-2.094-2.703-2.309-4.847-.859-6.601-2.867 3.633-8.59-5.96-1.851-12.77 3.446-14.816 7.305-4.946-3.234-10.211-2.472-14.227-10.05-4.277 8.667 3.512 16.734 3.512 16.734s-13.293 6.847-16.914 9.574c-.414.313-.102.965.398.84 5.543-1.344 13.914-8.059 22.18-5.442 1.644.649 3.715.98 5.945.856 4.313-.242 7.844-2.102 8.77-4.406a3.67 3.67 0 0 0 1.332-.075c.996-.25 1.957-.777 2.484-1.554a2 2 0 0 1 1.227-.813c.5-.113.988-.222 1.496-.203.058-1.156-1.719-.77-2.317-1.867Zm0 0"/><g clip-path="url(#a)"><g clip-path="url(#b)"><path fill="#8a3431" d="M209.805 133.773h17.672v15.465h-17.672Zm0 0"/></g></g><path fill="#7293a0" d="M127.453 247.804h6.89l6.188 12.453h-1.062l5.25-12.453h7.156l.094 1.688-1.922.531c-.023.398-.023.875 0 1.438.02.562.039 1.257.062 2.078l.204 5.03c.039.731.078 1.423.109 2.079.039.648.086 1.18.14 1.594.051.406.087.633.11.672l1.922.562-.094 1.688h-9.14l-.079-1.688 1.922-.562c.031-.063.051-.313.063-.75.008-.446.02-1.008.031-1.688a56.96 56.96 0 0 0-.016-2.14l-.109-9.672h1.734l-6.968 16.593h-2.391l-8.281-16.593h2.562l.031 10.297c0 1.417.008 2.417.032 3 .02.574.039.89.062.953l2.094.562-.078 1.688h-6.89l-.095-1.688 2.094-.562c.02-.094.035-.36.047-.797.008-.446.024-.973.047-1.578.02-.602.031-1.16.031-1.672l.063-5.235c.02-.925.031-1.695.031-2.312v-1.266l-1.938-.562ZM169.796 250.054l-6.437 10.375 1.656-3.578v3.672c0 .293.008.61.031.953.02.344.035.656.047.938.02.273.05.437.094.5l2.078.53-.094 1.72H158l-.078-1.72 2.063-.53c.039-.063.066-.227.078-.5.008-.282.023-.594.047-.938.02-.344.031-.66.031-.953v-3.672l1.172 3.578-5.938-10.375-1.515-.562.094-1.688h8.906l.078 1.688-1.922.562 3.406 6.094h-.86l3.438-6.094-2.078-.562.094-1.688h6.203l.094 1.688ZM178.792 265.164l-.094-1.688 1.812-.562c.051-.07.094-.344.125-.813.032-.476.055-1.05.078-1.719.02-.675.032-1.336.032-1.984l.031-3.938a67.053 67.053 0 0 0-.11-3.703c-.03-.507-.074-.8-.124-.875l-1.922-.39.078-1.688h8.281c2.719 0 4.711.446 5.984 1.328 1.282.887 1.922 2.157 1.922 3.813 0 1.086-.289 2.086-.859 3-.574.906-1.438 1.633-2.594 2.172-1.156.543-2.61.812-4.36.812-.26 0-.546-.02-.859-.062a9.569 9.569 0 0 1-.89-.156v-2.297c.101.054.312.117.625.187.312.074.707.11 1.187.11.801 0 1.414-.297 1.844-.891.426-.594.64-1.41.64-2.453 0-1.281-.296-2.219-.89-2.813-.594-.593-1.476-.89-2.64-.89h-.344c0 .18-.008.445-.016.797-.012.343-.016.84-.016 1.484v2.516l.032 3.937c0 .648.008 1.309.031 1.984.031.668.062 1.243.094 1.72.031.468.054.75.078.843l2.39.469-.078 1.75ZM211.86 265.367c-.617-.043-1.403-.09-2.36-.14a57.704 57.704 0 0 0-2.562-.063h-10.203l-.078-1.688 1.922-.562c.039-.07.078-.332.109-.782.039-.457.07-1.03.094-1.718.02-.696.03-1.422.03-2.172v-3.547c0-.77-.01-1.5-.03-2.188a31.922 31.922 0 0 0-.094-1.687c-.031-.445-.07-.703-.11-.766l-1.921-.562.078-1.688h8.812c.5 0 1.098-.004 1.797-.015a57.615 57.615 0 0 0 2.047-.063 60.359 60.359 0 0 0 1.64-.094l.907 4.704-1.953.265-1.172-2.719a9.884 9.884 0 0 0-.813-.125 7.254 7.254 0 0 0-.671-.03h-1.532c-.375 0-.758.007-1.14.015-.387.011-.668.039-.844.078-.024.2-.04.445-.047.734a84.022 84.022 0 0 0-.047 3.078v5.11a96.435 96.435 0 0 0 .047 3.328c.008.344.023.625.047.844.394.062.812.105 1.25.125a35.97 35.97 0 0 0 1.766.03H208.766c.227 0 .395-.007.5-.03.102-.02.242-.051.422-.094l1.687-3.047 1.891.36Zm-4.063-6-.265-1.985c-.137 0-.375-.004-.72-.015a49.325 49.325 0 0 0-1.14-.016h-1.156c-.398 0-.742.012-1.031.031-.293.024-.469.043-.531.063v-2.39c.062.023.238.046.53.077.29.024.634.032 1.032.032h1.156c.414 0 .797-.004 1.14-.016.345-.008.583-.016.72-.016l.265-1.921h1.89v6.156ZM231.554 247.632l.703 5.563-2.156.14-1.156-3.484c-.18-.039-.39-.066-.64-.078a25.915 25.915 0 0 0-.86-.016h-.922c-.156 0-.32.008-.484.016-.157.012-.25.027-.282.047 0 .117-.011.492-.031 1.125-.023.625-.039 1.387-.047 2.281-.012.899-.015 1.828-.015 2.797v1.984c0 1.012.015 1.95.046 2.813.032.867.055 1.562.079 2.094l2.625.5-.094 1.75h-10.281l-.094-1.75 2.625-.5c.039-.532.07-1.227.094-2.094.02-.863.03-1.8.03-2.813v-1.984c0-.969-.007-1.898-.015-2.797l-.031-2.281c-.012-.633-.027-1.008-.047-1.125-.031-.02-.133-.035-.297-.047a9.391 9.391 0 0 0-.469-.016h-.937c-.324 0-.637.008-.938.016-.293.012-.527.04-.703.078l-1.031 3.547-2.156-.187.594-5.579c.195 0 .507.012.937.032.438.011.91.027 1.422.047.52.023 1.016.042 1.484.062.469.023.852.031 1.157.031h6.921c.29 0 .672-.008 1.141-.031l1.484-.062c.508-.02.977-.036 1.407-.047.425-.02.738-.032.937-.032ZM240.099 265.43c-.836 0-1.774-.126-2.813-.376a11.835 11.835 0 0 1-2.781-1.047l-.125-4.703 2.312-.11 1.094 3.313c.313.2.719.368 1.219.5a5.54 5.54 0 0 0 1.437.204c.813 0 1.422-.149 1.829-.454.406-.312.609-.742.609-1.296 0-.645-.203-1.165-.61-1.563-.406-.395-.933-.719-1.578-.969a41.012 41.012 0 0 0-2.046-.765 10.65 10.65 0 0 1-2.063-.985 4.884 4.884 0 0 1-1.562-1.547c-.407-.644-.61-1.488-.61-2.53 0-1.126.32-2.11.969-2.954.656-.852 1.57-1.516 2.75-1.984 1.187-.477 2.582-.72 4.187-.72.407 0 .883.044 1.438.126.55.074 1.094.18 1.625.312.54.125 1 .278 1.375.454l.437 4.703-2.25.125-1.03-3.172c-.555-.239-1.184-.36-1.891-.36-.657 0-1.23.18-1.72.532-.491.343-.734.87-.734 1.578 0 .605.204 1.094.61 1.469.414.375.945.703 1.594.984a69.37 69.37 0 0 0 2.093.828 12 12 0 0 1 2.078 1 4.9 4.9 0 0 1 1.594 1.531c.414.617.625 1.407.625 2.375a4.441 4.441 0 0 1-1 2.844c-.668.824-1.605 1.477-2.812 1.953-1.2.469-2.617.703-4.25.703Zm0 0"/></svg>