<svg width="500" height="500" version="1.0" viewBox="0 0 375 375"><defs><clipPath id="a"><path d="M209 133.5h18.754v15.738H209Zm0 0"/></clipPath><clipPath id="b"><path d="M210.504 136.242c-1.43 2.363-.422 4.66.848 5.88l7.418 7.116 7.257-7.09c1.18-1.312 1.633-2.707 1.383-4.253-.347-2.145-2.113-3.81-4.297-4.043-1.336-.145-2.629.234-3.636 1.07-.274.226-.516.48-.727.754a5.123 5.123 0 0 0-4.934-1.813c-1.343.262-2.55 1.13-3.312 2.38"/></clipPath></defs><path fill="#7293a0" d="M148.469 162.293c-.406 1.43-3.07 5.316-4.094 6.547-1.023 1.226-4.914 3.07-5.121 4.297-.203 1.23 1.64 6.343 4.3 7.164 2.665.816 5.122.82 5.942 1.84.82 1.023 5.938 7.57 4.711 10.847-.672 1.785-1.95 6.575-2.84 11.465 2.871.645 5.754 1.09 8.574 1.293 3.961-7.27 13.262-26.512 17.02-33.363a93.46 93.46 0 0 1 1.144-2.012c-2.77-5.473-6.066-11.453-7.308-12.789-1.32-1.289-7.207-9.668-9.59-9.55-.012 0-.027 0-.039.003-.906.246.41 8.727.41 8.727s-6.406-8.848-7.828-8.848a.258.258 0 0 0-.156.05c-1.024.821-.469 7.782 1.433 11.052-1.23.82-6.148 1.843-6.558 3.277ZM165.422 205.77c2.773-.2 5.43-.688 7.879-1.536h.004a37.766 37.766 0 0 0 13.12-7.765c3.173-2.887 6.126-4.813 8.774-5.727 5.48-1.894 8.453.758 9.477 1.988 2.21 2.657 2.426 6.848.523 10.2-1.246 2.195-2.633 4.144-4.219 5.902 2.688-1.121 6.028-3.082 8.79-6.437.066-.083.125-.16.195-.243-1.18-4.925-.363-8.98.91-12.742.945-2.797 5.09-3.68 12.824-3.68 5.59 0 9.59-1.812 11.883-5.382 2.254-3.512 2.434-7.91 2.121-10.41a1.519 1.519 0 0 0-1.445-1.329c-.32-.011-.645-.023-.922-.03-1.422-.04-3.031-.087-4.582-.5-4.59-1.235-8.887-4.985-11.793-10.282-.91-1.656-4.348-2.402-7.11-3-1.113-.238-2.163-.469-3.132-.758-3.32-.992-5.364-4.715-7.531-8.656-.516-.934-1.04-1.883-1.57-2.781a.71.71 0 0 0-1.196-.043c-5.082 7.367-2.961 13.363-3.692 13.812-2.113.965-10.222 11.219-13.617 18.055-3.363 6.777-11.73 24.25-15.691 31.344Zm0 0"/><path fill="#ffc857" d="M129.828 196.418a78.143 78.143 0 0 0 11.426 5.273 55.92 55.92 0 0 1-8.316-15.554c-10.125-29.242 5.445-61.266 34.714-71.383 29.266-10.117 61.313 5.445 71.438 34.687 5.246 15.153 3.59 31.047-3.29 44.254 2.141-.144 4.24.746 5.673 2.489.172.21.328.433.472.656 7.707-14.824 9.555-32.656 3.672-49.653-11.37-32.835-47.36-50.308-80.222-38.949-32.864 11.356-50.352 47.317-38.985 80.157a63.55 63.55 0 0 0 3.418 8.023Zm0 0"/><path fill="#ffc857" d="M232.727 200.613c1.546-5.343-3.47-8.324-7.649-.886 1.73-4.52-2.11-8.082-5.766-4.286-2.476 2.567-2.847 5.188-6.421 9.524-8.18 9.937-21.641 10.984-25.977 8.883 7.594-3.528 11.652-7.434 14.766-12.914 2.507-4.414-.942-12.004-12.532-1.473-18.136 16.48-44.714 12.05-56.378 3.156 15.527 23.528 45.554 34.512 73.437 24.875a62.947 62.947 0 0 0 32.375-25.328c1.938-3.305-3.066-7.262-5.855-1.55Zm0 0"/><path fill="#7293a0" d="M200.945 131.086c-.57-1.04-1.488-2.094-2.703-2.309-4.847-.859-6.601-2.867 3.633-8.59-5.96-1.851-12.77 3.446-14.816 7.305-4.946-3.234-10.211-2.472-14.227-10.05-4.277 8.667 3.512 16.734 3.512 16.734s-13.293 6.847-16.914 9.574c-.414.313-.102.965.398.84 5.543-1.344 13.914-8.059 22.18-5.442 1.644.649 3.715.98 5.945.856 4.313-.242 7.844-2.102 8.77-4.406a3.67 3.67 0 0 0 1.332-.075c.996-.25 1.957-.777 2.484-1.554a2 2 0 0 1 1.227-.813c.5-.113.988-.222 1.496-.203.058-1.156-1.719-.77-2.317-1.867Zm0 0"/><g clip-path="url(#a)"><g clip-path="url(#b)"><path fill="#8a3431" d="M209.805 133.773h17.672v15.465h-17.672Zm0 0"/></g></g></svg>