<svg width="500" height="500" version="1.0" viewBox="0 0 375 375"><defs><clipPath id="a"><path d="M257 86.012h53v46.336h-53Zm0 0"/></clipPath><clipPath id="b"><path d="M259.29 94.094c-4.22 6.949-1.247 13.715 2.487 17.304l21.84 20.95 21.375-20.875c3.473-3.864 4.805-7.961 4.067-12.52-1.024-6.312-6.223-11.207-12.645-11.906-3.941-.426-7.746.691-10.719 3.16a14.28 14.28 0 0 0-2.136 2.211 14.846 14.846 0 0 0-2.586-2.504c-3.414-2.594-7.762-3.625-11.938-2.824-3.957.765-7.508 3.316-9.746 7.004"/></clipPath></defs><path fill="#fdfffb" d="M76.863 171.285c-1.203 4.227-9.066 15.703-12.082 19.328-3.023 3.625-14.504 9.063-15.11 12.688-.605 3.625 4.837 18.726 12.692 21.14 7.856 2.414 15.11 2.422 17.528 5.438 2.418 3.016 17.52 22.348 13.894 32.016-1.98 5.277-5.754 19.41-8.383 33.843 8.485 1.903 16.985 3.215 25.309 3.82 11.684-21.46 39.121-78.261 50.219-98.48a238.956 238.956 0 0 1 3.367-5.937c-8.172-16.157-17.899-33.813-21.563-37.754-3.894-3.809-21.265-28.543-28.289-28.2a.395.395 0 0 0-.12.016c-2.673.727 1.218 25.766 1.218 25.766s-18.902-26.121-23.11-26.121c-.18 0-.331.05-.453.148-3.027 2.422-1.382 22.969 4.23 32.617-3.636 2.422-18.144 5.446-19.347 9.672ZM126.879 299.629c8.183-.59 16.016-2.035 23.246-4.535h.008c14.457-5.004 27.488-12.715 38.71-22.922 9.364-8.516 18.079-14.2 25.895-16.902 16.172-5.594 24.938 2.238 27.961 5.87 6.52 7.833 7.153 20.215 1.54 30.102-3.677 6.48-7.766 12.235-12.45 17.43 7.938-3.317 17.785-9.098 25.934-19 .199-.246.375-.48.574-.723-3.48-14.539-1.063-26.512 2.687-37.613 2.793-8.254 15.024-10.86 37.84-10.86 16.5 0 28.293-5.347 35.063-15.886 6.652-10.367 7.18-23.352 6.258-30.735a4.477 4.477 0 0 0-4.266-3.914c-.95-.043-1.902-.074-2.719-.097-4.195-.117-8.95-.25-13.515-1.48-13.543-3.645-26.227-14.708-34.801-30.344-2.688-4.887-12.824-7.09-20.973-8.852-3.285-.711-6.39-1.383-9.242-2.238-9.797-2.938-15.832-13.922-22.23-25.551-1.516-2.766-3.055-5.567-4.63-8.219-.773-1.312-2.664-1.379-3.527-.12-14.988 21.741-8.73 39.44-10.887 40.765-6.238 2.855-30.16 33.117-40.18 53.304-9.921 20.008-34.609 71.582-46.296 92.52Zm0 0"/><path fill="#ffc857" d="M21.855 272.02c10.258 5.82 21.711 11.152 33.715 15.566-10.304-13.566-18.675-28.957-24.543-45.91-29.87-86.324 16.075-180.844 102.43-210.711 86.352-29.867 180.902 16.07 210.777 102.394 15.477 44.72 10.598 91.637-9.699 130.625 6.305-.421 12.504 2.204 16.73 7.352.508.625.97 1.273 1.395 1.934 22.742-43.762 28.192-96.395 10.828-146.567-33.547-96.93-139.726-148.512-236.691-114.98C29.832 45.253-21.77 151.398 11.777 248.336a187.496 187.496 0 0 0 10.078 23.684Zm0 0"/><path fill="#ffc857" d="M325.457 284.41c4.563-15.773-10.23-24.574-22.559-2.625 5.098-13.336-6.226-23.848-17.02-12.644-7.304 7.582-8.398 15.308-18.94 28.117-24.137 29.328-63.856 32.422-76.649 26.21 22.406-10.406 34.383-21.937 43.566-38.113 7.399-13.035-2.777-35.437-36.976-4.347-53.512 48.644-131.926 35.574-166.344 9.316 45.82 69.45 134.414 101.88 216.676 73.426 40.887-14.137 73.703-41.07 95.527-74.762 5.719-9.758-9.047-21.433-17.281-4.578Zm0 0"/><path fill="#fdfffb" d="M231.684 79.172c-1.672-3.07-4.383-6.176-7.97-6.813-14.304-2.535-19.48-8.468 10.716-25.355-17.582-5.465-37.672 10.168-43.715 21.559-14.586-9.543-30.13-7.293-41.973-29.665-12.62 25.579 10.363 49.395 10.363 49.395s-39.222 20.215-49.91 28.266c-1.218.918-.3 2.84 1.18 2.476 16.352-3.972 41.055-23.789 65.441-16.058 4.852 1.914 10.957 2.882 17.536 2.515 12.722-.707 23.148-6.195 25.882-13.004 1.274.168 2.598.106 3.922-.222 2.95-.735 5.774-2.29 7.336-4.586.84-1.239 2.16-2.075 3.621-2.403 1.473-.332 2.914-.648 4.407-.597.18-3.41-5.063-2.266-6.836-5.508Zm0 0"/><g clip-path="url(#a)"><g clip-path="url(#b)"><path fill="#8a3431" d="M257.227 86.824h52.027v45.524h-52.027Zm0 0"/></g></g></svg>