<svg width="500" height="500" version="1.0" viewBox="0 0 375 375"><path fill="#7293a0" d="M127.453 247.804h6.89l6.188 12.453h-1.062l5.25-12.453h7.156l.094 1.688-1.922.531c-.023.398-.023.875 0 1.438.02.562.039 1.257.062 2.078l.204 5.03c.039.731.078 1.423.109 2.079.039.648.086 1.18.14 1.594.051.406.087.633.11.672l1.922.562-.094 1.688h-9.14l-.079-1.688 1.922-.562c.031-.063.051-.313.063-.75.008-.446.02-1.008.031-1.688a56.96 56.96 0 0 0-.016-2.14l-.109-9.672h1.734l-6.968 16.593h-2.391l-8.281-16.593h2.562l.031 10.297c0 1.417.008 2.417.032 3 .02.574.039.89.062.953l2.094.562-.078 1.688h-6.89l-.095-1.688 2.094-.562c.02-.094.035-.36.047-.797.008-.446.024-.973.047-1.578.02-.602.031-1.16.031-1.672l.063-5.235c.02-.925.031-1.695.031-2.312v-1.266l-1.938-.562ZM169.796 250.054l-6.437 10.375 1.656-3.578v3.672c0 .293.008.61.031.953.02.344.035.656.047.938.02.273.05.437.094.5l2.078.53-.094 1.72H158l-.078-1.72 2.063-.53c.039-.063.066-.227.078-.5.008-.282.023-.594.047-.938.02-.344.031-.66.031-.953v-3.672l1.172 3.578-5.938-10.375-1.515-.562.094-1.688h8.906l.078 1.688-1.922.562 3.406 6.094h-.86l3.438-6.094-2.078-.562.094-1.688h6.203l.094 1.688ZM178.792 265.164l-.094-1.688 1.812-.562c.051-.07.094-.344.125-.813.032-.476.055-1.05.078-1.719.02-.675.032-1.336.032-1.984l.031-3.938a67.053 67.053 0 0 0-.11-3.703c-.03-.507-.074-.8-.124-.875l-1.922-.39.078-1.688h8.281c2.719 0 4.711.446 5.984 1.328 1.282.887 1.922 2.157 1.922 3.813 0 1.086-.289 2.086-.859 3-.574.906-1.438 1.633-2.594 2.172-1.156.543-2.61.812-4.36.812-.26 0-.546-.02-.859-.062a9.569 9.569 0 0 1-.89-.156v-2.297c.101.054.312.117.625.187.312.074.707.11 1.187.11.801 0 1.414-.297 1.844-.891.426-.594.64-1.41.64-2.453 0-1.281-.296-2.219-.89-2.813-.594-.593-1.476-.89-2.64-.89h-.344c0 .18-.008.445-.016.797-.012.343-.016.84-.016 1.484v2.516l.032 3.937c0 .648.008 1.309.031 1.984.031.668.062 1.243.094 1.72.031.468.054.75.078.843l2.39.469-.078 1.75ZM211.86 265.367c-.617-.043-1.403-.09-2.36-.14a57.704 57.704 0 0 0-2.562-.063h-10.203l-.078-1.688 1.922-.562c.039-.07.078-.332.109-.782.039-.457.07-1.03.094-1.718.02-.696.03-1.422.03-2.172v-3.547c0-.77-.01-1.5-.03-2.188a31.922 31.922 0 0 0-.094-1.687c-.031-.445-.07-.703-.11-.766l-1.921-.562.078-1.688h8.812c.5 0 1.098-.004 1.797-.015a57.615 57.615 0 0 0 2.047-.063 60.359 60.359 0 0 0 1.64-.094l.907 4.704-1.953.265-1.172-2.719a9.884 9.884 0 0 0-.813-.125 7.254 7.254 0 0 0-.671-.03h-1.532c-.375 0-.758.007-1.14.015-.387.011-.668.039-.844.078-.024.2-.04.445-.047.734a84.022 84.022 0 0 0-.047 3.078v5.11a96.435 96.435 0 0 0 .047 3.328c.008.344.023.625.047.844.394.062.812.105 1.25.125a35.97 35.97 0 0 0 1.766.03H208.766c.227 0 .395-.007.5-.03.102-.02.242-.051.422-.094l1.687-3.047 1.891.36Zm-4.063-6-.265-1.985c-.137 0-.375-.004-.72-.015a49.325 49.325 0 0 0-1.14-.016h-1.156c-.398 0-.742.012-1.031.031-.293.024-.469.043-.531.063v-2.39c.062.023.238.046.53.077.29.024.634.032 1.032.032h1.156c.414 0 .797-.004 1.14-.016.345-.008.583-.016.72-.016l.265-1.921h1.89v6.156ZM231.554 247.632l.703 5.563-2.156.14-1.156-3.484c-.18-.039-.39-.066-.64-.078a25.915 25.915 0 0 0-.86-.016h-.922c-.156 0-.32.008-.484.016-.157.012-.25.027-.282.047 0 .117-.011.492-.031 1.125-.023.625-.039 1.387-.047 2.281-.012.899-.015 1.828-.015 2.797v1.984c0 1.012.015 1.95.046 2.813.032.867.055 1.562.079 2.094l2.625.5-.094 1.75h-10.281l-.094-1.75 2.625-.5c.039-.532.07-1.227.094-2.094.02-.863.03-1.8.03-2.813v-1.984c0-.969-.007-1.898-.015-2.797l-.031-2.281c-.012-.633-.027-1.008-.047-1.125-.031-.02-.133-.035-.297-.047a9.391 9.391 0 0 0-.469-.016h-.937c-.324 0-.637.008-.938.016-.293.012-.527.04-.703.078l-1.031 3.547-2.156-.187.594-5.579c.195 0 .507.012.937.032.438.011.91.027 1.422.047.52.023 1.016.042 1.484.062.469.023.852.031 1.157.031h6.921c.29 0 .672-.008 1.141-.031l1.484-.062c.508-.02.977-.036 1.407-.047.425-.02.738-.032.937-.032ZM240.099 265.43c-.836 0-1.774-.126-2.813-.376a11.835 11.835 0 0 1-2.781-1.047l-.125-4.703 2.312-.11 1.094 3.313c.313.2.719.368 1.219.5a5.54 5.54 0 0 0 1.437.204c.813 0 1.422-.149 1.829-.454.406-.312.609-.742.609-1.296 0-.645-.203-1.165-.61-1.563-.406-.395-.933-.719-1.578-.969a41.012 41.012 0 0 0-2.046-.765 10.65 10.65 0 0 1-2.063-.985 4.884 4.884 0 0 1-1.562-1.547c-.407-.644-.61-1.488-.61-2.53 0-1.126.32-2.11.969-2.954.656-.852 1.57-1.516 2.75-1.984 1.187-.477 2.582-.72 4.187-.72.407 0 .883.044 1.438.126.55.074 1.094.18 1.625.312.54.125 1 .278 1.375.454l.437 4.703-2.25.125-1.03-3.172c-.555-.239-1.184-.36-1.891-.36-.657 0-1.23.18-1.72.532-.491.343-.734.87-.734 1.578 0 .605.204 1.094.61 1.469.414.375.945.703 1.594.984a69.37 69.37 0 0 0 2.093.828 12 12 0 0 1 2.078 1 4.9 4.9 0 0 1 1.594 1.531c.414.617.625 1.407.625 2.375a4.441 4.441 0 0 1-1 2.844c-.668.824-1.605 1.477-2.812 1.953-1.2.469-2.617.703-4.25.703Zm0 0"/></svg>