<svg xmlns="http://www.w3.org/2000/svg" xmlns:xlink="http://www.w3.org/1999/xlink" width="500" zoomAndPan="magnify" viewBox="0 0 375 374.999991" height="500" preserveAspectRatio="xMidYMid meet" version="1.0"><defs><clipPath id="d48032939d"><path d="M 258 98 L 305.902344 98 L 305.902344 139.695312 L 258 139.695312 Z M 258 98 " clip-rule="nonzero"/></clipPath><clipPath id="54176a2dec"><path d="M 259.890625 105.03125 C 256.070312 111.328125 258.761719 117.457031 262.148438 120.710938 L 281.933594 139.695312 L 301.304688 120.777344 C 304.449219 117.277344 305.65625 113.566406 304.988281 109.433594 C 304.0625 103.714844 299.351562 99.28125 293.527344 98.644531 C 289.960938 98.261719 286.511719 99.273438 283.820312 101.507812 C 283.09375 102.109375 282.445312 102.78125 281.882812 103.515625 C 281.214844 102.679688 280.429688 101.921875 279.539062 101.246094 C 276.445312 98.894531 272.503906 97.957031 268.722656 98.683594 C 265.136719 99.378906 261.917969 101.691406 259.890625 105.03125 " clip-rule="nonzero"/></clipPath></defs><rect x="-37.5" width="450" fill="#ffffff" y="-37.499999" height="449.999989" fill-opacity="1"/><rect x="-37.5" width="450" fill="#ffffff" y="-37.499999" height="449.999989" fill-opacity="1"/><rect x="-37.5" width="450" fill="#fdfffb" y="-37.499999" height="449.999989" fill-opacity="1"/><path fill="#7293a0" d="M 94.492188 174.917969 C 93.402344 178.742188 86.285156 189.140625 83.554688 192.425781 C 80.820312 195.707031 70.429688 200.632812 69.882812 203.917969 C 69.335938 207.199219 74.257812 220.878906 81.367188 223.066406 C 88.480469 225.25 95.042969 225.261719 97.230469 227.992188 C 99.417969 230.722656 113.085938 248.234375 109.804688 256.992188 C 108.015625 261.769531 104.601562 274.570312 102.222656 287.644531 C 109.898438 289.371094 117.589844 290.558594 125.125 291.105469 C 135.699219 271.667969 160.53125 220.214844 170.574219 201.902344 C 171.492188 200.21875 172.519531 198.414062 173.621094 196.523438 C 166.226562 181.890625 157.421875 165.898438 154.105469 162.328125 C 150.582031 158.878906 134.859375 136.472656 128.503906 136.785156 C 128.464844 136.785156 128.425781 136.789062 128.394531 136.796875 C 125.976562 137.460938 129.496094 160.136719 129.496094 160.136719 C 129.496094 160.136719 112.390625 136.476562 108.585938 136.476562 C 108.421875 136.476562 108.285156 136.523438 108.175781 136.609375 C 105.433594 138.804688 106.921875 157.414062 112.003906 166.15625 C 108.710938 168.351562 95.578125 171.085938 94.492188 174.917969 Z M 94.492188 174.917969 " fill-opacity="1" fill-rule="nonzero"/><path fill="#7293a0" d="M 139.757812 291.171875 C 147.164062 290.636719 154.25 289.328125 160.796875 287.0625 C 160.800781 287.0625 160.800781 287.0625 160.800781 287.0625 C 173.886719 282.527344 185.679688 275.546875 195.839844 266.296875 C 204.3125 258.585938 212.199219 253.4375 219.269531 250.988281 C 233.90625 245.921875 241.84375 253.019531 244.578125 256.308594 C 250.480469 263.402344 251.050781 274.617188 245.972656 283.574219 C 242.644531 289.441406 238.945312 294.65625 234.703125 299.363281 C 241.886719 296.355469 250.800781 291.121094 258.175781 282.152344 C 258.355469 281.925781 258.515625 281.71875 258.695312 281.5 C 255.542969 268.328125 257.730469 257.484375 261.128906 247.429688 C 263.652344 239.949219 274.722656 237.589844 295.371094 237.589844 C 310.304688 237.589844 320.980469 232.746094 327.105469 223.199219 C 333.125 213.808594 333.605469 202.046875 332.769531 195.363281 C 332.523438 193.390625 330.886719 191.902344 328.910156 191.8125 C 328.050781 191.777344 327.1875 191.75 326.449219 191.726562 C 322.652344 191.621094 318.347656 191.5 314.214844 190.386719 C 301.957031 187.085938 290.480469 177.066406 282.71875 162.902344 C 280.289062 158.472656 271.113281 156.480469 263.738281 154.882812 C 260.769531 154.242188 257.957031 153.628906 255.375 152.855469 C 246.511719 150.195312 241.046875 140.246094 235.257812 129.710938 C 233.882812 127.207031 232.488281 124.671875 231.066406 122.269531 C 230.367188 121.078125 228.65625 121.019531 227.871094 122.160156 C 214.308594 141.851562 219.972656 157.886719 218.023438 159.085938 C 212.375 161.671875 190.722656 189.082031 181.660156 207.363281 C 172.679688 225.488281 150.335938 272.203125 139.757812 291.171875 Z M 139.757812 291.171875 " fill-opacity="1" fill-rule="nonzero"/><path fill="#ffc857" d="M 44.707031 266.160156 C 53.992188 271.433594 64.359375 276.261719 75.21875 280.261719 C 65.894531 267.972656 58.316406 254.03125 53.007812 238.675781 C 25.972656 160.484375 67.558594 74.867188 145.710938 47.816406 C 223.863281 20.761719 309.433594 62.371094 336.472656 140.566406 C 350.480469 181.070312 346.0625 223.566406 327.695312 258.882812 C 333.398438 258.5 339.011719 260.882812 342.835938 265.542969 C 343.296875 266.105469 343.710938 266.695312 344.097656 267.292969 C 364.675781 227.652344 369.609375 179.980469 353.898438 134.535156 C 323.535156 46.734375 227.4375 0.015625 139.683594 30.386719 C 51.929688 60.757812 5.226562 156.90625 35.585938 244.710938 C 38.167969 252.167969 41.230469 259.320312 44.707031 266.160156 Z M 44.707031 266.160156 " fill-opacity="1" fill-rule="nonzero"/><path fill="#ffc857" d="M 319.476562 277.386719 C 323.605469 263.097656 310.21875 255.125 299.058594 275.007812 C 303.671875 262.929688 293.425781 253.40625 283.660156 263.554688 C 277.042969 270.421875 276.054688 277.421875 266.515625 289.023438 C 244.667969 315.585938 208.722656 318.390625 197.148438 312.765625 C 217.425781 303.339844 228.265625 292.894531 236.574219 278.242188 C 243.269531 266.4375 234.0625 246.140625 203.109375 274.300781 C 154.679688 318.363281 83.710938 306.527344 52.5625 282.742188 C 94.03125 345.648438 174.210938 375.023438 248.660156 349.253906 C 285.664062 336.445312 315.363281 312.046875 335.117188 281.53125 C 340.292969 272.691406 326.925781 262.117188 319.476562 277.386719 Z M 319.476562 277.386719 " fill-opacity="1" fill-rule="nonzero"/><path fill="#7293a0" d="M 234.609375 91.480469 C 233.097656 88.699219 230.644531 85.886719 227.398438 85.3125 C 214.449219 83.011719 209.769531 77.640625 237.09375 62.34375 C 221.179688 57.390625 203 71.550781 197.53125 81.871094 C 184.328125 73.226562 170.261719 75.265625 159.542969 55.003906 C 148.121094 78.167969 168.921875 99.746094 168.921875 99.746094 C 168.921875 99.746094 133.425781 118.054688 123.753906 125.347656 C 122.648438 126.175781 123.480469 127.917969 124.820312 127.589844 C 139.621094 123.992188 161.976562 106.042969 184.046875 113.042969 C 188.4375 114.777344 193.964844 115.65625 199.917969 115.324219 C 211.429688 114.679688 220.867188 109.710938 223.339844 103.542969 C 224.496094 103.695312 225.695312 103.640625 226.890625 103.34375 C 229.558594 102.675781 232.117188 101.269531 233.527344 99.1875 C 234.289062 98.066406 235.484375 97.308594 236.804688 97.011719 C 238.140625 96.710938 239.445312 96.425781 240.792969 96.46875 C 240.957031 93.382812 236.214844 94.417969 234.609375 91.480469 Z M 234.609375 91.480469 " fill-opacity="1" fill-rule="nonzero"/><g clip-path="url(#d48032939d)"><g clip-path="url(#54176a2dec)"><path fill="#8a3431" d="M 258.023438 98.445312 L 305.167969 98.445312 L 305.167969 139.695312 L 258.023438 139.695312 Z M 258.023438 98.445312 " fill-opacity="1" fill-rule="nonzero"/></g></g></svg>